<svg width="28" height="37" viewBox="0 0 28 37" fill="none" xmlns="http://www.w3.org/2000/svg">
<path fill-rule="evenodd" clip-rule="evenodd" d="M4.65003 36.9301H23.337C23.9629 36.9341 24.5827 36.8077 25.157 36.5591C26.2802 36.0797 27.1701 35.1783 27.635 34.0491C27.8802 33.4655 28.0044 32.8381 28 32.2051V21.7651H6.51203V18.9311H28V17.0411C28.0038 15.7913 27.5153 14.5903 26.64 13.6981C26.2155 13.2684 25.7115 12.9253 25.156 12.6881C24.5817 12.4395 23.9619 12.3131 23.336 12.3171H4.65203C4.00903 12.3171 3.40403 12.4411 2.83903 12.6881C2.28523 12.9266 1.78296 13.2703 1.36003 13.7001C0.485047 14.592 -0.00353007 15.7926 2.75316e-05 17.0421V27.4711H21.442V30.3171H2.75316e-05V32.2071C-0.00422555 33.457 0.484435 34.6582 1.36003 35.5501C1.78003 35.9761 2.27203 36.3121 2.83803 36.5591C3.40303 36.8071 4.00703 36.9301 4.65003 36.9301ZM9.67903 6.5661C10.1504 7.69565 11.0437 8.59684 12.169 9.0781C12.739 9.3241 13.345 9.4481 13.989 9.4481C14.632 9.4481 15.237 9.3241 15.802 9.0781C16.9207 8.59319 17.8071 7.69243 18.274 6.5661C18.5189 5.98308 18.6431 5.35646 18.639 4.7241C18.6421 3.47445 18.1536 2.27371 17.279 1.3811C16.856 0.952882 16.3545 0.609992 15.802 0.3711C15.2298 0.122298 14.6119 -0.00407449 13.988 0.000100156C13.345 0.000100156 12.738 0.1241 12.168 0.3711C11.6118 0.609615 11.1063 0.952457 10.679 1.3811C10.2428 1.82118 9.89775 2.34298 9.66352 2.91663C9.42929 3.49027 9.31053 4.10449 9.31403 4.7241C9.31403 5.3781 9.43603 5.9921 9.67903 6.5661Z" fill="white"/>
</svg>
